<?xml version="1.0" encoding="utf-8"?>
<!-- Generator: Adobe Illustrator 22.0.1, SVG Export Plug-In . SVG Version: 6.00 Build 0)  -->
<svg version="1.1" id="Layer_1" xmlns="http://www.w3.org/2000/svg" xmlns:xlink="http://www.w3.org/1999/xlink" x="0px" y="0px"
	 viewBox="0 0 393.5 828" style="enable-background:new 0 0 393.5 828;" xml:space="preserve">
<style type="text/css">
	.st0{fill:#FFFFFF;}
	.st1{fill:none;stroke:#000000;stroke-miterlimit:10;}
</style>
<title>flower</title>
<g id="center">
	<circle class="st0" cx="187.5" cy="166" r="14.5"/>
	<path d="M187.5,152c7.7,0,14,6.3,14,14s-6.3,14-14,14s-14-6.3-14-14S179.8,152,187.5,152 M187.5,151c-8.3,0-15,6.7-15,15
		s6.7,15,15,15s15-6.7,15-15S195.8,151,187.5,151z"/>
</g>
<g id="petals">
	<ellipse class="st0" cx="83.2" cy="165.5" rx="82.7" ry="24.2"/>
	<path d="M83.2,141.8c22.1,0,42.9,2.6,58.5,7.2c15,4.5,23.7,10.5,23.7,16.5s-8.6,12.1-23.7,16.5c-15.6,4.6-36.4,7.2-58.5,7.2
		s-42.9-2.6-58.6-7.2C9.7,177.6,1,171.6,1,165.5s8.6-12,23.7-16.5C40.3,144.4,61.1,141.8,83.2,141.8 M83.2,140.8
		c-46,0-83.2,11.1-83.2,24.7s37.3,24.7,83.2,24.7s83.2-11.1,83.2-24.7S129.2,140.8,83.2,140.8z"/>
	<ellipse class="st0" cx="291.8" cy="166.5" rx="82.7" ry="24.2"/>
	<path d="M291.8,142.8c22.1,0,42.9,2.6,58.6,7.2c15,4.5,23.7,10.5,23.7,16.5s-8.6,12-23.7,16.5c-15.6,4.6-36.4,7.2-58.6,7.2
		s-42.9-2.6-58.5-7.2c-15-4.5-23.7-10.5-23.7-16.5s8.6-12.1,23.7-16.5C248.9,145.3,269.7,142.8,291.8,142.8 M291.8,141.8
		c-46,0-83.2,11.1-83.2,24.7s37.2,24.7,83.2,24.7s83.2-11.1,83.2-24.7S337.7,141.8,291.8,141.8z"/>
	<path class="st0" d="M186.7,146.9c-7.2,0-14-7.6-19.2-21.3c-5.2-13.9-8-32.3-8-52c0.1-40.3,12.5-73.1,27.6-73.1
		c7.3,0,14.1,7.6,19.2,21.3c5.2,13.9,8,32.3,8,51.9C214.3,114,201.9,146.8,186.7,146.9L186.7,146.9z"/>
	<path d="M187.2,0v1c6.9,0,13.7,7.7,18.7,21c5.2,13.8,8,32.2,7.9,51.8s-3,37.9-8.3,51.7c-5.1,13.3-12,20.9-18.9,20.9
		s-13.7-7.7-18.7-21c-5.2-13.8-8-32.2-7.9-51.8s3-37.9,8.3-51.7C173.4,8.6,180.3,1,187.2,1L187.2,0 M187.2,0
		c-15.4,0-28,32.9-28.1,73.6s12.2,73.7,27.6,73.8l0,0c15.4,0,28-32.9,28.2-73.6S202.7,0,187.2,0L187.2,0z"/>
	<path class="st0" d="M185.7,331.5c-7.2,0-14-7.6-19.2-21.3c-5.2-13.9-8-32.3-8-51.9c0.1-40.3,12.5-73.1,27.6-73.1
		c7.3,0,14.1,7.6,19.2,21.3c5.2,13.9,8,32.3,8,51.9C213.2,298.7,200.8,331.5,185.7,331.5L185.7,331.5z"/>
	<path d="M186.2,184.6v1c6.9,0,13.7,7.7,18.7,21c5.2,13.8,8,32.2,7.9,51.8s-3,37.9-8.3,51.7c-5,13.3-11.9,20.9-18.9,20.9
		s-13.7-7.7-18.7-21c-5.2-13.8-8-32.2-7.9-51.8s3-37.9,8.3-51.7c5.1-13.3,12-20.9,18.9-20.9V184.6 M186.2,184.6
		c-15.4,0-28,32.9-28.1,73.6s12.2,73.8,27.6,73.8l0,0c15.4,0,28-32.9,28.1-73.6S201.6,184.7,186.2,184.6L186.2,184.6z"/>
</g>
<path class="st1" d="M218.5,223l-3.6-32.2l30.4,9.7C245.3,200.4,365.2,358.2,218.5,223z"/>
<path class="st1" d="M124.1,199.5l31.6-7.5l-5.9,31.4C149.7,223.3,7.6,361.5,124.1,199.5z"/>
<path class="st1" d="M152.2,109.7l6.2,31.9l-31.1-7.2C127.4,134.3-4.8-13.4,152.2,109.7z"/>
<path class="st1" d="M246.9,134.5l-31.7,6.8l6.7-31.2C221.9,110.1,367.3-24.7,246.9,134.5z"/>
</svg>
