<svg id="Layer_1" data-name="Layer 1" xmlns="http://www.w3.org/2000/svg" viewBox="0 0 393.5 828"><defs><style>.cls-1{fill:#fff;}.cls-2{fill:none;stroke:#000;stroke-miterlimit:10;}</style></defs><title>flower</title><g id="center"><circle class="cls-1" cx="187.5" cy="166" r="14.5"/><path d="M443,360a14,14,0,1,1-14,14,14,14,0,0,1,14-14m0-1a15,15,0,1,0,15,15,15,15,0,0,0-15-15Z" transform="translate(-255.5 -208)"/></g><g id="petals"><ellipse class="cls-1" cx="83.22" cy="165.53" rx="82.72" ry="24.21"/><path d="M338.72,349.82c22.13,0,42.93,2.56,58.55,7.2,15,4.46,23.66,10.48,23.66,16.51s-8.62,12.06-23.66,16.52c-15.62,4.64-36.42,7.2-58.55,7.2s-42.93-2.56-58.56-7.2c-15-4.46-23.66-10.48-23.66-16.52s8.62-12,23.66-16.51c15.63-4.64,36.42-7.2,58.56-7.2m0-1c-46,0-83.22,11.06-83.22,24.71s37.26,24.72,83.22,24.72,83.21-11.07,83.21-24.72-37.25-24.71-83.21-24.71Z" transform="translate(-255.5 -208)"/><ellipse class="cls-1" cx="291.78" cy="166.47" rx="82.72" ry="24.21"/><path d="M547.28,350.75c22.14,0,42.93,2.56,58.56,7.2,15,4.46,23.66,10.48,23.66,16.52s-8.62,12-23.66,16.51c-15.63,4.64-36.42,7.2-58.56,7.2s-42.93-2.56-58.55-7.2c-15-4.46-23.66-10.48-23.66-16.51s8.62-12.06,23.66-16.52c15.62-4.64,36.42-7.2,58.55-7.2m0-1c-46,0-83.21,11.07-83.21,24.72s37.25,24.71,83.21,24.71,83.22-11.06,83.22-24.71-37.26-24.72-83.22-24.72Z" transform="translate(-255.5 -208)"/><path class="cls-1" d="M442.22,354.85c-7.23,0-14.05-7.59-19.19-21.31-5.2-13.88-8-32.33-7.95-52,.15-40.3,12.55-73.09,27.65-73.09,7.27,0,14.08,7.59,19.23,21.31,5.2,13.88,8,32.32,8,51.94-.15,40.31-12.56,73.1-27.66,73.1Z" transform="translate(-255.5 -208)"/><path d="M442.73,208l0,1c6.91,0,13.74,7.67,18.73,21,5.18,13.82,8,32.2,7.92,51.76s-3,37.9-8.29,51.69c-5.09,13.29-12,20.91-18.9,20.91s-13.73-7.67-18.72-21c-5.18-13.82-8-32.2-7.92-51.76s3-37.91,8.29-51.69c5.08-13.29,12-20.91,18.86-20.91v-1m0,0c-15.4,0-28,32.93-28.15,73.59s12.23,73.71,27.64,73.76h0c15.4,0,28-32.94,28.16-73.6S458.18,208,442.77,208Z" transform="translate(-255.5 -208)"/><path class="cls-1" d="M441.17,539.5c-7.23,0-14.05-7.59-19.19-21.31-5.2-13.88-8-32.32-8-51.94.14-40.31,12.55-73.1,27.65-73.1,7.26,0,14.08,7.59,19.22,21.31,5.2,13.88,8,32.33,8,51.94-.14,40.31-12.55,73.1-27.65,73.1Z" transform="translate(-255.5 -208)"/><path d="M441.68,392.65l0,1c6.91,0,13.73,7.67,18.72,21,5.18,13.82,8,32.2,7.92,51.76s-3,37.91-8.29,51.69C455,531.38,448.1,539,441.17,539s-13.73-7.67-18.72-21c-5.18-13.82-8-32.2-7.92-51.76s3-37.9,8.29-51.69c5.08-13.29,12-20.91,18.86-20.91v-1m0,0c-15.4,0-28,32.94-28.15,73.59S425.75,540,441.17,540h0c15.4,0,28-32.93,28.15-73.59s-12.22-73.71-27.64-73.76Z" transform="translate(-255.5 -208)"/></g><ellipse class="cls-1" cx="314.5" cy="801.5" rx="78.5" ry="26"/><path d="M570,984c21,0,40.72,2.74,55.54,7.71C639.81,996.5,648,1003,648,1009.5s-8.19,13-22.46,17.79c-14.82,5-34.54,7.71-55.54,7.71s-40.72-2.74-55.54-7.71C500.19,1022.5,492,1016,492,1009.5s8.19-13,22.46-17.79C529.28,986.74,549,984,570,984m0-1c-43.63,0-79,11.86-79,26.5s35.37,26.5,79,26.5,79-11.86,79-26.5S613.63,983,570,983Z" transform="translate(-255.5 -208)"/><path class="cls-2" d="M474,431l-3.63-32.25,30.4,9.69S620.68,566.25,474,431Z" transform="translate(-255.5 -208)"/><path class="cls-2" d="M379.6,407.46l31.56-7.53-5.92,31.35S263.13,569.52,379.6,407.46Z" transform="translate(-255.5 -208)"/><path class="cls-2" d="M407.74,317.71l6.2,31.86-31.08-7.24S250.7,194.56,407.74,317.71Z" transform="translate(-255.5 -208)"/><path class="cls-2" d="M502.44,342.52l-31.74,6.76,6.69-31.2S622.81,183.33,502.44,342.52Z" transform="translate(-255.5 -208)"/></svg>