<?xml version="1.0" encoding="utf-8"?>
<!-- Generator: Adobe Illustrator 22.0.1, SVG Export Plug-In . SVG Version: 6.00 Build 0)  -->
<svg version="1.1" id="Layer_1" xmlns="http://www.w3.org/2000/svg" xmlns:xlink="http://www.w3.org/1999/xlink" x="0px" y="0px"
	 viewBox="0 0 2560 1600" style="enable-background:new 0 0 2560 1600;" xml:space="preserve">
<style type="text/css">
	.st0{fill:none;}
	.st1{fill:#C3C3C3;}
	.st2{fill:url(#New_Pattern_3);}
</style>
<pattern  y="1600" width="304" height="304" patternUnits="userSpaceOnUse" id="New_Pattern_3" viewBox="0 -304 304 304" style="overflow:visible;">
	<g>
		<rect x="0" y="-304" class="st0" width="304" height="304"/>
		<g>
			<rect x="0" y="-304" class="st0" width="304" height="304"/>
			<path class="st1" d="M0-224v-2h44.1c0.4-2,1.9-3.5,3.9-3.9c2.7-0.6,5.3,1.2,5.9,3.9s-1.2,5.3-3.9,5.9c-2.7,0.6-5.3-1.2-5.9-3.9H0
				z M82-272v-2h122.1c0.4-2,1.9-3.5,3.9-3.9c2.7-0.6,5.3,1.2,5.9,3.9s-1.2,5.3-3.9,5.9c-2.7,0.6-5.3-1.2-5.9-3.9
				C204.1-272,82-272,82-272z M304-226v2h-42.1c-0.4,2-1.9,3.5-3.9,3.9c-2.7,0.6-5.3-1.2-5.9-3.9s1.2-5.3,3.9-5.9
				c2.7-0.6,5.3,1.2,5.9,3.9H304z M304-242v2h-42.1c-0.4,2-1.9,3.5-3.9,3.9c-2.7,0.6-5.3-1.2-5.9-3.9s1.2-5.3,3.9-5.9
				c2.7-0.6,5.3,1.2,5.9,3.9C261.9-242,304-242,304-242z M181.9-128c-0.4,2-1.9,3.5-3.9,3.9c-2.7,0.6-5.3-1.2-5.9-3.9
				c-0.6-2.7,1.2-5.3,3.9-5.9c2.7-0.6,5.3,1.2,5.9,3.9h86.2c0.4-2,1.9-3.5,3.9-3.9c2.7-0.6,5.3,1.2,5.9,3.9c0.6,2.7-1.2,5.3-3.9,5.9
				s-5.3-1.2-5.9-3.9H181.9z M0-80v-2h12.1c0.4-2,1.9-3.5,3.9-3.9c2.7-0.6,5.3,1.2,5.9,3.9c0.6,2.7-1.2,5.3-3.9,5.9
				s-5.3-1.2-5.9-3.9H0z M284.1-114c0.4-2,1.9-3.5,3.9-3.9c2.7-0.6,5.3,1.2,5.9,3.9c0.6,2.7-1.2,5.3-3.9,5.9s-5.3-1.2-5.9-3.9h-86.2
				c-0.4,2-1.9,3.5-3.9,3.9c-2.7,0.6-5.3-1.2-5.9-3.9c-0.6-2.7,1.2-5.3,3.9-5.9c2.7-0.6,5.3,1.2,5.9,3.9H284.1z M258,0h-2v-12.1
				c-2-0.4-3.5-1.9-3.9-3.9c-0.6-2.7,1.2-5.3,3.9-5.9c2.7-0.6,5.3,1.2,5.9,3.9s-1.2,5.3-3.9,5.9V0z M194-165.9
				c2,0.4,3.5,1.9,3.9,3.9c0.6,2.7-1.2,5.3-3.9,5.9c-2.7,0.6-5.3-1.2-5.9-3.9c-0.6-2.7,1.2-5.3,3.9-5.9v-54.2
				c-2-0.4-3.5-1.9-3.9-3.9c-0.6-2.7,1.2-5.3,3.9-5.9c2.7-0.6,5.3,1.2,5.9,3.9s-1.2,5.3-3.9,5.9V-165.9z M245.9-18
				c0.6,2.7-1.2,5.3-3.9,5.9c-2.7,0.6-5.3-1.2-5.9-3.9s1.2-5.3,3.9-5.9V-82h64v2h-62v58.1C244-21.5,245.5-20,245.9-18z M261.9-34
				c0.6,2.7-1.2,5.3-3.9,5.9c-2.7,0.6-5.3-1.2-5.9-3.9s1.2-5.3,3.9-5.9V-66h48v2h-46v26.1C260-37.5,261.5-36,261.9-34z M130-133.9
				c2,0.4,3.5,1.9,3.9,3.9c0.6,2.7-1.2,5.3-3.9,5.9s-5.3-1.2-5.9-3.9c-0.6-2.7,1.2-5.3,3.9-5.9V-210h16v-10.1
				c-2-0.4-3.5-1.9-3.9-3.9c-0.6-2.7,1.2-5.3,3.9-5.9c2.7-0.6,5.3,1.2,5.9,3.9c0.6,2.7-1.2,5.3-3.9,5.9v12.1h-16V-133.9L130-133.9z
				 M112-112v-48H85.9c-0.4,2-1.9,3.5-3.9,3.9c-2.7,0.6-5.3-1.2-5.9-3.9s1.2-5.3,3.9-5.9s5.3,1.2,5.9,3.9H114v48h10.1
				c0.4-2,1.9-3.5,3.9-3.9c2.7-0.6,5.3,1.2,5.9,3.9c0.6,2.7-1.2,5.3-3.9,5.9s-5.3-1.2-5.9-3.9C124.1-112,112-112,112-112z M178-242
				v76.1c2,0.4,3.5,1.9,3.9,3.9c0.6,2.7-1.2,5.3-3.9,5.9c-2.7,0.6-5.3-1.2-5.9-3.9c-0.6-2.7,1.2-5.3,3.9-5.9V-240h-58.1
				c-0.4,2-1.9,3.5-3.9,3.9c-2.7,0.6-5.3-1.2-5.9-3.9s1.2-5.3,3.9-5.9s5.3,1.2,5.9,3.9C117.9-242,178-242,178-242z M112-178v-48
				h12.1c0.4-2,1.9-3.5,3.9-3.9c2.7-0.6,5.3,1.2,5.9,3.9c0.6,2.7-1.2,5.3-3.9,5.9s-5.3-1.2-5.9-3.9H114v48h-12.1
				c-0.4,2-1.9,3.5-3.9,3.9c-2.7,0.6-5.3-1.2-5.9-3.9s1.2-5.3,3.9-5.9s5.3,1.2,5.9,3.9H112z M66-272H48v-32h2v30h14v-10.1
				c-2-0.4-3.5-1.9-3.9-3.9c-0.6-2.7,1.2-5.3,3.9-5.9c2.7-0.6,5.3,1.2,5.9,3.9s-1.2,5.3-3.9,5.9V-272z M224-176v-98h48v-30h2v32h-48
				v94h10.1c0.4-2,1.9-3.5,3.9-3.9c2.7-0.6,5.3,1.2,5.9,3.9s-1.2,5.3-3.9,5.9c-2.7,0.6-5.3-1.2-5.9-3.9H224z M272-146v-42.1
				c-2-0.4-3.5-1.9-3.9-3.9c-0.6-2.7,1.2-5.3,3.9-5.9s5.3,1.2,5.9,3.9c0.6,2.7-1.2,5.3-3.9,5.9v44.1h-12.1c-0.4,2-1.9,3.5-3.9,3.9
				c-2.7,0.6-5.3-1.2-5.9-3.9c-0.6-2.7,1.2-5.3,3.9-5.9c2.7-0.6,5.3,1.2,5.9,3.9H272z M210-242v80h16v18h-44.1
				c-0.4,2-1.9,3.5-3.9,3.9c-2.7,0.6-5.3-1.2-5.9-3.9c-0.6-2.7,1.2-5.3,3.9-5.9c2.7-0.6,5.3,1.2,5.9,3.9H224v-14h-16v-80h-10.1
				c-0.4,2-1.9,3.5-3.9,3.9c-2.7,0.6-5.3-1.2-5.9-3.9s1.2-5.3,3.9-5.9c2.7-0.6,5.3,1.2,5.9,3.9C197.9-242,210-242,210-242z
				 M284.1-32H274V0h-2v-34h12.1c0.4-2,1.9-3.5,3.9-3.9c2.7-0.6,5.3,1.2,5.9,3.9c0.6,2.7-1.2,5.3-3.9,5.9S284.7-29.3,284.1-32
				L284.1-32z M101.9-98c0.6,2.7-1.2,5.3-3.9,5.9s-5.3-1.2-5.9-3.9s1.2-5.3,3.9-5.9V-144H53.9c-0.4,2-1.9,3.5-3.9,3.9
				c-2.7,0.6-5.3-1.2-5.9-3.9s1.2-5.3,3.9-5.9c2.7-0.6,5.3,1.2,5.9,3.9H98v44.1C100-101.5,101.5-100,101.9-98z M82-34V0h-2v-32H53.9
				c-0.4,2-1.9,3.5-3.9,3.9c-2.7,0.6-5.3-1.2-5.9-3.9s1.2-5.3,3.9-5.9c2.7-0.6,5.3,1.2,5.9,3.9H82z M117.9-34
				c0.6,2.7-1.2,5.3-3.9,5.9c-2.7,0.6-5.3-1.2-5.9-3.9s1.2-5.3,3.9-5.9V-64H80v-64H69.9c-0.4,2-1.9,3.5-3.9,3.9
				c-2.7,0.6-5.3-1.2-5.9-3.9s1.2-5.3,3.9-5.9s5.3,1.2,5.9,3.9H82v64h32v28.1C116-37.5,117.5-36,117.9-34z M130-82v44.1
				c2,0.4,3.5,1.9,3.9,3.9c0.6,2.7-1.2,5.3-3.9,5.9c-2.7,0.6-5.3-1.2-5.9-3.9s1.2-5.3,3.9-5.9V-80h-26.1c-0.4,2-1.9,3.5-3.9,3.9
				c-2.7,0.6-5.3-1.2-5.9-3.9s1.2-5.3,3.9-5.9s5.3,1.2,5.9,3.9H130z M144-18v-42.1c-2-0.4-3.5-1.9-3.9-3.9c-0.6-2.7,1.2-5.3,3.9-5.9
				c2.7-0.6,5.3,1.2,5.9,3.9c0.6,2.7-1.2,5.3-3.9,5.9V-16h-28.1c-0.4,2-1.9,3.5-3.9,3.9c-2.7,0.6-5.3-1.2-5.9-3.9s1.2-5.3,3.9-5.9
				s5.3,1.2,5.9,3.9H144z M96-288v-16h2v14h122.1c0.4-2,1.9-3.5,3.9-3.9c2.7-0.6,5.3,1.2,5.9,3.9s-1.2,5.3-3.9,5.9
				c-2.7,0.6-5.3-1.2-5.9-3.9H96z M245.9-146c0.6,2.7-1.2,5.3-3.9,5.9c-2.7,0.6-5.3-1.2-5.9-3.9c-0.6-2.7,1.2-5.3,3.9-5.9V-162h16
				v-30h-16v-66h48v-46h2v48h-48v62h16v34h-16v10.1C244-149.5,245.5-148,245.9-146z M66-18V0H48v-2h16v-14H53.9
				c-0.4,2-1.9,3.5-3.9,3.9c-2.7,0.6-5.3-1.2-5.9-3.9s1.2-5.3,3.9-5.9c2.7-0.6,5.3,1.2,5.9,3.9H66z M194-50v48h48v2h-50v-48h-26.1
				c-0.4,2-1.9,3.5-3.9,3.9c-2.7,0.6-5.3-1.2-5.9-3.9c-0.6-2.7,1.2-5.3,3.9-5.9c2.7-0.6,5.3,1.2,5.9,3.9L194-50L194-50z M176-2v-30
				h-14v10.1c2,0.4,3.5,1.9,3.9,3.9c0.6,2.7-1.2,5.3-3.9,5.9c-2.7,0.6-5.3-1.2-5.9-3.9s1.2-5.3,3.9-5.9V-34h18V0h-62.2
				c0.2-0.6,0.2-1.3,0-2c-0.6-1.6-2.3-2.4-3.8-1.8c-1.6,0.5-2.4,2.3-1.8,3.8h-2.1c-0.6-2.7,1.2-5.3,3.9-5.9s5.3,1.2,5.9,3.9
				C117.9-2,176-2,176-2z M137.8-98l32,32H210v44.1c2,0.4,3.5,1.9,3.9,3.9c0.6,2.7-1.2,5.3-3.9,5.9c-2.7,0.6-5.3-1.2-5.9-3.9
				s1.2-5.3,3.9-5.9V-64h-39l-32-32h-19.1c-0.4,2-1.9,3.5-3.9,3.9c-2.7,0.6-5.3-1.2-5.9-3.9s1.2-5.3,3.9-5.9s5.3,1.2,5.9,3.9H137.8z
				 M146-112.4L176.4-82H226v60.1c2,0.4,3.5,1.9,3.9,3.9c0.6,2.7-1.2,5.3-3.9,5.9c-2.7,0.6-5.3-1.2-5.9-3.9s1.2-5.3,3.9-5.9V-80
				h-48.4L144-111.6v-76.5c-2-0.4-3.5-1.9-3.9-3.9c-0.6-2.7,1.2-5.3,3.9-5.9c2.7-0.6,5.3,1.2,5.9,3.9c0.6,2.7-1.2,5.3-3.9,5.9
				V-112.4z M162-121.4L185.4-98h114.7c0.4-2,1.9-3.5,3.9-3.9v2.1c-0.9,0.3-1.5,1-1.8,1.8c-0.5,1.6,0.3,3.3,1.8,3.8v2.1
				c-2-0.4-3.5-1.9-3.9-3.9H184.6L160-120.6v-99.5c-2-0.4-3.5-1.9-3.9-3.9c-0.6-2.7,1.2-5.3,3.9-5.9c2.7-0.6,5.3,1.2,5.9,3.9
				c0.6,2.7-1.2,5.3-3.9,5.9V-121.4z M18-153.4l48,48V-50h32V0h-2v-48H64v-56.6l-48-48v-3.5c-2-0.4-3.5-1.9-3.9-3.9
				c-0.6-2.7,1.2-5.3,3.9-5.9s5.3,1.2,5.9,3.9c0.6,2.7-1.2,5.3-3.9,5.9V-153.4z M53.9-50c0.6,2.7-1.2,5.3-3.9,5.9
				c-2.7,0.6-5.3-1.2-5.9-3.9c-0.6-2.7,1.2-5.3,3.9-5.9v-42.7l-48-48V-210h28.1c0.4-2,1.9-3.5,3.9-3.9c2.7-0.6,5.3,1.2,5.9,3.9
				s-1.2,5.3-3.9,5.9s-5.3-1.2-5.9-3.9H2v62.6l48,48v43.5C52-53.5,53.5-52,53.9-50z M37.9-66c0.6,2.7-1.2,5.3-3.9,5.9
				s-5.3-1.2-5.9-3.9c-0.6-2.7,1.2-5.3,3.9-5.9v-18.7l-32-32v-2.8l34,34v19.5C36-69.5,37.5-68,37.9-66z M8.6-32L0-40.6v-2.8L9.4-34
				h2.7c0.4-2,1.9-3.5,3.9-3.9c2.7-0.6,5.3,1.2,5.9,3.9s-1.2,5.3-3.9,5.9s-5.3-1.2-5.9-3.9H8.6z M297.4-50l6.6,6.6v2.8l-7.4-7.4
				h-18.7c-0.4,2-1.9,3.5-3.9,3.9c-2.7,0.6-5.3-1.2-5.9-3.9c-0.6-2.7,1.2-5.3,3.9-5.9s5.3,1.2,5.9,3.9L297.4-50L297.4-50z M290-210
				v72.6l14,14v2.8l-16-16V-208h-26.1c-0.4,2-1.9,3.5-3.9,3.9c-2.7,0.6-5.3-1.2-5.9-3.9s1.2-5.3,3.9-5.9c2.7-0.6,5.3,1.2,5.9,3.9
				H290z M66-242v25.4L41.4-192H21.9c-0.4,2-1.9,3.5-3.9,3.9c-2.7,0.6-5.3-1.2-5.9-3.9s1.2-5.3,3.9-5.9s5.3,1.2,5.9,3.9h18.7
				L64-217.4V-240H53.9c-0.4,2-1.9,3.5-3.9,3.9c-2.7,0.6-5.3-1.2-5.9-3.9s1.2-5.3,3.9-5.9c2.7-0.6,5.3,1.2,5.9,3.9
				C53.9-242,66-242,66-242z M204.1-256H98v55.4L57.4-160H37.9c-0.4,2-1.9,3.5-3.9,3.9c-2.7,0.6-5.3-1.2-5.9-3.9
				c-0.6-2.7,1.2-5.3,3.9-5.9s5.3,1.2,5.9,3.9h18.7L96-201.4V-258h108.1c0.4-2,1.9-3.5,3.9-3.9c2.7-0.6,5.3,1.2,5.9,3.9
				s-1.2,5.3-3.9,5.9S204.7-253.3,204.1-256L204.1-256z M82-258v49.4L49.4-176H21.9c-0.4,2-1.9,3.5-3.9,3.9
				c-2.7,0.6-5.3-1.2-5.9-3.9c-0.6-2.7,1.2-5.3,3.9-5.9s5.3,1.2,5.9,3.9h26.7L80-209.4V-256H53.9c-0.4,2-1.9,3.5-3.9,3.9
				c-2.7,0.6-5.3-1.2-5.9-3.9s1.2-5.3,3.9-5.9c2.7-0.6,5.3,1.2,5.9,3.9C53.9-258,82-258,82-258z M34,0h-2v-40.6L8.6-64H0v-2h9.4
				L34-41.4v1.6V0z M2-258h14v-46h2v48H0v-46.2c0,0,0,0,0,0c1.6,0.6,3.3-0.3,3.8-1.8h2.1c-0.4,2-1.9,3.5-3.9,3.9V-258z M34-240H0v-2
				h32v-62h2v63V-240z M18-18V0h-2v-16H0v-2h17H18z M290,0h-2v-18h16v2h-14V0z M258-288h-18v-16h2v14h14v-14h2v15V-288z M0-94.2
				c0.6,0.2,1.3,0.2,2,0c1.6-0.6,2.4-2.3,1.8-3.8s-2.3-2.4-3.8-1.8v-2.1c0.3-0.1,0.7-0.1,1-0.1c2.8,0,5,2.2,5,5c0,0.3,0,0.6-0.1,1
				c-0.5,2.7-3.2,4.5-5.9,3.9V-94.2z M80-304h2v32h-2V-304z M114-300.1c-2.7,0.5-5.3-1.2-5.9-3.9h2.1c0.3,0.9,1,1.5,1.8,1.8
				c1.6,0.5,3.3-0.3,3.8-1.8h2.1C117.5-302,116-300.5,114-300.1z M3.8,0c0.2-0.6,0.2-1.4,0-2C3.3-3.6,1.6-4.4,0-3.8v-2.1
				C0.6-6,1.3-6,2-5.9C4.7-5.4,6.4-2.7,5.9,0L3.8,0L3.8,0z M300.1,0c-0.6-2.7,1.2-5.3,3.9-5.9v2.1c0,0,0,0,0,0
				c-1.6,0.6-2.4,2.3-1.8,3.8L300.1,0C300.1,0,300.1,0,300.1,0z M300.1-304h2.1c0.3,0.9,1,1.5,1.8,1.8v2.1
				C302-300.5,300.5-302,300.1-304z M94-97c0,1.7,1.3,3,3,3s3-1.3,3-3s-1.3-3-3-3S94-98.7,94-97z M94-81c0,1.7,1.3,3,3,3s3-1.3,3-3
				s-1.3-3-3-3S94-82.7,94-81z M110-97c0,1.7,1.3,3,3,3s3-1.3,3-3s-1.3-3-3-3S110-98.7,110-97z M126-113c0,1.7,1.3,3,3,3
				c1.7,0,3-1.3,3-3s-1.3-3-3-3C127.3-116,126-114.7,126-113z M126-129c0,1.7,1.3,3,3,3c1.7,0,3-1.3,3-3s-1.3-3-3-3
				C127.3-132,126-130.7,126-129z M78-161c0,1.7,1.3,3,3,3s3-1.3,3-3s-1.3-3-3-3S78-162.7,78-161z M94-177c0,1.7,1.3,3,3,3
				s3-1.3,3-3s-1.3-3-3-3S94-178.7,94-177z M126-225c0,1.7,1.3,3,3,3c1.7,0,3-1.3,3-3s-1.3-3-3-3C127.3-228,126-226.7,126-225z
				 M110-241c0,1.7,1.3,3,3,3s3-1.3,3-3s-1.3-3-3-3S110-242.7,110-241z M142-225c0,1.7,1.3,3,3,3s3-1.3,3-3s-1.3-3-3-3
				S142-226.7,142-225z M142-193c0,1.7,1.3,3,3,3s3-1.3,3-3s-1.3-3-3-3S142-194.7,142-193z M158-225c0,1.7,1.3,3,3,3s3-1.3,3-3
				s-1.3-3-3-3S158-226.7,158-225z M190-241c0,1.7,1.3,3,3,3s3-1.3,3-3s-1.3-3-3-3S190-242.7,190-241z M190-225c0,1.7,1.3,3,3,3
				s3-1.3,3-3s-1.3-3-3-3S190-226.7,190-225z M174-161c0,1.7,1.3,3,3,3s3-1.3,3-3s-1.3-3-3-3S174-162.7,174-161z M190-161
				c0,1.7,1.3,3,3,3s3-1.3,3-3s-1.3-3-3-3S190-162.7,190-161z M206-257c0,1.7,1.3,3,3,3s3-1.3,3-3c0-1.7-1.3-3-3-3
				S206-258.7,206-257z M206-273c0,1.7,1.3,3,3,3s3-1.3,3-3s-1.3-3-3-3S206-274.7,206-273z M222-289c0,1.7,1.3,3,3,3l0,0
				c1.7,0,3-1.3,3-3s-1.3-3-3-3S222-290.7,222-289z M238-145c0,1.7,1.3,3,3,3s3-1.3,3-3s-1.3-3-3-3S238-146.7,238-145z M238-177
				c0,1.7,1.3,3,3,3s3-1.3,3-3s-1.3-3-3-3S238-178.7,238-177z M254-145c0,1.7,1.3,3,3,3c1.7,0,3-1.3,3-3s-1.3-3-3-3
				S254-146.7,254-145z M270-129c0,1.7,1.3,3,3,3s3-1.3,3-3s-1.3-3-3-3S270-130.7,270-129z M174-129c0,1.7,1.3,3,3,3s3-1.3,3-3
				s-1.3-3-3-3S174-130.7,174-129z M174-145c0,1.7,1.3,3,3,3s3-1.3,3-3s-1.3-3-3-3S174-146.7,174-145z M190-113c0,1.7,1.3,3,3,3
				s3-1.3,3-3s-1.3-3-3-3S190-114.7,190-113z M286-113c0,1.7,1.3,3,3,3s3-1.3,3-3s-1.3-3-3-3S286-114.7,286-113z M270-49
				c0,1.7,1.3,3,3,3s3-1.3,3-3s-1.3-3-3-3S270-50.7,270-49z M286-33c0,1.7,1.3,3,3,3s3-1.3,3-3s-1.3-3-3-3S286-34.7,286-33z M254-33
				c0,1.7,1.3,3,3,3c1.7,0,3-1.3,3-3s-1.3-3-3-3S254-34.7,254-33z M254-17c0,1.7,1.3,3,3,3c1.7,0,3-1.3,3-3s-1.3-3-3-3
				S254-18.7,254-17z M238-17c0,1.7,1.3,3,3,3s3-1.3,3-3s-1.3-3-3-3S238-18.7,238-17z M222-17c0,1.7,1.3,3,3,3l0,0c1.7,0,3-1.3,3-3
				s-1.3-3-3-3S222-18.7,222-17z M206-17c0,1.7,1.3,3,3,3s3-1.3,3-3s-1.3-3-3-3S206-18.7,206-17z M46-33c0,1.7,1.3,3,3,3s3-1.3,3-3
				s-1.3-3-3-3S46-34.7,46-33z M14-33c0,1.7,1.3,3,3,3s3-1.3,3-3s-1.3-3-3-3S14-34.7,14-33z M46-49c0,1.7,1.3,3,3,3s3-1.3,3-3
				s-1.3-3-3-3S46-50.7,46-49z M30-65c0,1.7,1.3,3,3,3c1.7,0,3-1.3,3-3s-1.3-3-3-3C31.3-68,30-66.7,30-65z M46-17c0,1.7,1.3,3,3,3
				s3-1.3,3-3s-1.3-3-3-3S46-18.7,46-17z M46-257c0,1.7,1.3,3,3,3s3-1.3,3-3c0-1.7-1.3-3-3-3S46-258.7,46-257z M62-289
				c0,1.7,1.3,3,3,3c1.7,0,3-1.3,3-3s-1.3-3-3-3S62-290.7,62-289z M46-225c0,1.7,1.3,3,3,3s3-1.3,3-3s-1.3-3-3-3S46-226.7,46-225z
				 M46-241c0,1.7,1.3,3,3,3s3-1.3,3-3s-1.3-3-3-3S46-242.7,46-241z M30-209c0,1.7,1.3,3,3,3c1.7,0,3-1.3,3-3s-1.3-3-3-3
				C31.3-212,30-210.7,30-209z M110-33c0,1.7,1.3,3,3,3s3-1.3,3-3s-1.3-3-3-3S110-34.7,110-33z M126-33c0,1.7,1.3,3,3,3
				c1.7,0,3-1.3,3-3s-1.3-3-3-3C127.3-36,126-34.7,126-33z M110-17c0,1.7,1.3,3,3,3s3-1.3,3-3s-1.3-3-3-3S110-18.7,110-17z M142-65
				c0,1.7,1.3,3,3,3s3-1.3,3-3s-1.3-3-3-3S142-66.7,142-65z M158-49c0,1.7,1.3,3,3,3s3-1.3,3-3s-1.3-3-3-3S158-50.7,158-49z M158-17
				c0,1.7,1.3,3,3,3s3-1.3,3-3s-1.3-3-3-3S158-18.7,158-17z M270-193c0,1.7,1.3,3,3,3s3-1.3,3-3s-1.3-3-3-3S270-194.7,270-193z
				 M254-209c0,1.7,1.3,3,3,3c1.7,0,3-1.3,3-3s-1.3-3-3-3S254-210.7,254-209z M254-225c0,1.7,1.3,3,3,3c1.7,0,3-1.3,3-3s-1.3-3-3-3
				S254-226.7,254-225z M254-241c0,1.7,1.3,3,3,3c1.7,0,3-1.3,3-3s-1.3-3-3-3S254-242.7,254-241z M14-177c0,1.7,1.3,3,3,3s3-1.3,3-3
				s-1.3-3-3-3S14-178.7,14-177z M14-193c0,1.7,1.3,3,3,3s3-1.3,3-3s-1.3-3-3-3S14-194.7,14-193z M14-161c0,1.7,1.3,3,3,3s3-1.3,3-3
				s-1.3-3-3-3S14-162.7,14-161z M30-161c0,1.7,1.3,3,3,3c1.7,0,3-1.3,3-3s-1.3-3-3-3C31.3-164,30-162.7,30-161z M14-81
				c0,1.7,1.3,3,3,3s3-1.3,3-3s-1.3-3-3-3S14-82.7,14-81z M46-145c0,1.7,1.3,3,3,3s3-1.3,3-3s-1.3-3-3-3S46-146.7,46-145z M62-129
				c0,1.7,1.3,3,3,3c1.7,0,3-1.3,3-3s-1.3-3-3-3S62-130.7,62-129z"/>
		</g>
	</g>
</pattern>
<rect id="pattern" class="st2" width="2560" height="1600"/>
</svg>
